<svg xmlns="http://www.w3.org/2000/svg" width="102" height="34" viewBox="0 0 102 34"><rect x="34" y="-34" width="34" height="102" transform="translate(34 68) rotate(-90)" fill="none"/><path d="M76,5h0V16.51c0,1.93-2.14,3.5-4.07,3.5s-4-1.57-4-3.5V5H64V15.15c-.19,4.69,2.89,8.65,7.58,8.84s8.21-3.46,8.4-8.15q0-.35,0-.69V5Z" fill="#0066c1" fill-rule="evenodd"/><path d="M9,9V5H4V0H0V16.7a7.67,7.67,0,0,0,4.53,6.62A7.43,7.43,0,0,0,7.62,24H9V20.12H7.54A3.63,3.63,0,0,1,4,16.28V9Z" fill="#0066c1"/><path d="M52.51,5A9.52,9.52,0,0,0,43,14.5L43,34H47V22.28l.78.45A9.51,9.51,0,1,0,52.51,5ZM58,14.5A5.54,5.54,0,1,1,52.51,9,5.54,5.54,0,0,1,58,14.5Z" fill="#0066c1"/><path d="M91.51,5A9.52,9.52,0,0,0,82,14.5L82,34h4V22.28l.78.45A9.5,9.5,0,1,0,91.51,5ZM97,14.5A5.54,5.54,0,1,1,91.51,9,5.54,5.54,0,0,1,97,14.5Z" fill="#0066c1"/><path d="M37,15.76a5.6,5.6,0,0,1-2.67,3.64,5.71,5.71,0,0,1-6.65-.66l11-6.79L40.32,11s-.2-.5-.42-.92c-.14-.27-.51-.85-.51-.85a9.49,9.49,0,0,0-16.09,10,9.38,9.38,0,0,0,5.78,4.39,9.5,9.5,0,0,0,11.66-7l.1-.47-3.7-.85ZM25.8,14.63a5.69,5.69,0,0,1,9-4.74l-9,5.52C25.83,15.16,25.8,14.63,25.8,14.63Z" fill="#0066c1"/><path d="M20,5c-.37,0-.74.07-1.11.13l-.77.14A7.81,7.81,0,0,0,16.19,6l-.2.1-.26.15c-.21.11-.5.28-.75.44V5H11V23.89h4V14.71a10.5,10.5,0,0,1,.11-1.1l0-.1a5.38,5.38,0,0,1,1.37-2.9,3.19,3.19,0,0,1,.32-.3l.18-.16.37-.27.12-.07.21-.13.23-.13a6.2,6.2,0,0,1,2-.73l.42-.07V5h0Z" fill="#0066c1"/></svg>